<svg id="visual" viewBox="0 0 900 600" width="900" height="600" xmlns="http://www.w3.org/2000/svg" xmlns:xlink="http://www.w3.org/1999/xlink" version="1.1"><rect x="0" y="0" width="900" height="600" fill="#060c10"></rect><defs><linearGradient id="grad1_0" x1="33.3%" y1="100%" x2="100%" y2="0%"><stop offset="20%" stop-color="#060c10" stop-opacity="1"></stop><stop offset="80%" stop-color="#060c10" stop-opacity="1"></stop></linearGradient></defs><defs><linearGradient id="grad2_0" x1="0%" y1="100%" x2="66.7%" y2="0%"><stop offset="20%" stop-color="#060c10" stop-opacity="1"></stop><stop offset="80%" stop-color="#060c10" stop-opacity="1"></stop></linearGradient></defs><g transform="translate(900, 600)"><path d="M-314 0C-295.6 -47.6 -277.2 -95.1 -254.6 -147C-232.1 -198.9 -205.4 -255.1 -162.2 -281C-119.1 -306.9 -59.6 -302.5 0 -298L0 0Z" fill="#0f3234"></path></g><g transform="translate(0, 0)"><path d="M292 0C288.7 52.9 285.4 105.9 263.3 152C241.1 198.1 200 237.4 153 265C106 292.6 53 308.6 0 324.5L0 0Z" fill="#0f3234"></path></g></svg>